<svg width="1024" height="1024" viewBox="0 0 1024 1024" fill="none" xmlns="http://www.w3.org/2000/svg">
<path d="M402.5 237.5H617.5L694 330H835.5L872.5 376L880 683.5L835.5 748H200.5L142.5 683.5L150.5 376L200.5 340.5L351 330L402.5 237.5Z" fill="#5EEAD4" stroke="black"/>
<path d="M719 461.5L669 492V560.5L650.5 636L571.5 694L448.5 686L365.5 625.5L336.5 516L377.5 393L505.5 322L650.5 365.5L719 461.5Z" fill="#FEF3C7"/>
<path fill-rule="evenodd" clip-rule="evenodd" d="M414.847 17.7304C350.653 31.6409 303.49 50.9331 251.138 84.6955C211.725 110.116 205.309 124.736 227.481 138.619C234.846 143.231 231.628 144.739 288.866 109.897C327.779 86.2116 372.646 68.3799 417.874 58.6286C463.635 48.7622 557.919 48.9567 601.562 59.0096C654.331 71.162 734.674 106.024 758.49 127.098C771.393 138.52 785.306 140.953 794.617 133.42C815.454 116.565 789.219 91.8076 709.754 53.3342C646.163 22.5445 603.902 13.2099 520.123 11.4438C462.146 10.2254 444.662 11.2652 414.847 17.7304ZM332.415 125.312C321.585 131.614 322.98 156.062 334.401 160.102C339.315 161.845 384.429 162.765 434.647 162.154C515.864 161.162 526.507 160.277 530.984 154.165C538.476 143.925 537.098 134.138 527.182 127.205C519.813 122.046 503.569 121.046 428.859 121.145C375.498 121.22 336.558 122.899 332.415 125.312ZM835.584 170.635C828.433 181.538 830.363 186.614 849.929 208.339C854.843 213.796 868.35 230.973 879.95 246.51C891.546 262.048 904.847 275.756 909.507 276.975C918.612 279.352 933.279 267.997 933.279 258.571C933.279 250.955 897.585 201.806 875.902 179.565C855.244 158.376 845.098 156.129 835.584 170.635ZM148.282 171.604C129.785 184.296 135.387 214.292 156.251 214.292C164.097 214.292 170.243 210.871 175.84 203.378L184 192.464L175.872 181.549C167.561 170.389 156.08 166.25 148.282 171.604ZM398.957 223.702C381.163 234.739 371.549 246.76 353.132 280.975L336.467 311.94L320.04 310.741C305.933 309.713 303.418 308.142 302.238 299.621C299.736 281.547 295.266 279.777 252.099 279.777C217.799 279.777 210.466 280.904 204.912 287.036C201.297 291.028 198.337 297.811 198.337 302.113C198.337 307.328 194.039 311.487 185.426 314.607C165.583 321.794 145.644 340.289 134.731 361.633L124.843 380.98V539.731C124.843 694.914 125.038 698.84 133.432 714.357C144.85 735.455 164.534 753.771 186.419 763.654C203.887 771.548 211.185 771.734 506.489 771.817C841.535 771.913 833.844 772.464 864.576 746.187C873.574 738.492 885.115 723.716 890.224 713.353C899.373 694.795 899.531 692.323 900.731 548.467C902.11 382.826 900.68 371.447 874.822 342.856C850.39 315.837 843.573 313.749 772.569 311.527L709.193 309.542L695.102 284.69C676.832 252.464 661.355 233.37 645.834 223.916C634.309 216.895 624.755 216.304 522.109 216.304C420.508 216.304 409.842 216.947 398.957 223.702ZM634.031 268.863C640.725 275.955 652.841 293.802 660.953 308.515C684.182 350.659 685.417 351.215 755.439 351.215C802.738 351.215 817.742 352.568 828.866 357.842C849.722 367.729 857.767 383.826 857.783 415.707L857.799 442.496H796.6H735.405L722.601 419.827C699.445 378.841 649.012 337.8 601.562 321.338C589.859 317.278 564.565 313.674 539.986 312.567C470.639 309.443 422.63 327.029 377.778 371.975C325.697 424.169 302.234 504.6 319.627 571.315C342.43 658.779 424.886 724.279 512.177 724.279C580.734 724.279 643.784 687.572 673.996 630.073C719.03 544.359 687.368 437.143 604.709 395.459C541.758 363.708 478.509 372.13 427.055 419.108C387.456 455.268 371.188 516.232 387.301 568.104C397.439 600.739 437.325 641.245 468.395 650.464C552.603 675.448 632.616 616.888 626.264 534.929C623.007 492.904 593.22 456.645 555.082 448.275C511.224 438.651 463.524 476.295 494.165 496.349C503.346 502.361 504.689 502.242 515.634 494.46C522.053 489.892 531.683 486.153 537.03 486.153C553.29 486.153 572.844 502.461 581.445 523.193C589.279 542.081 589.283 542.307 581.54 564.631C566.968 606.649 527.444 625.155 482.466 611.022C410.457 588.393 399.568 488.681 463.763 439.766C485.521 423.184 507.672 417.338 539.986 419.64C630.471 426.086 681.289 522.594 639.187 608.034C624.469 637.903 599.341 659.779 564.823 672.773C531.925 685.159 479.987 682.679 447.63 667.181C380.786 635.161 344.555 567.461 357.005 497.857C369.563 427.641 417.167 374.011 482.382 356.608C524.644 345.333 582.049 352.524 618.073 373.614C647.597 390.902 677.794 421.267 689.004 444.937C707.12 483.188 704.51 482.184 785.691 482.184H856.599L859.308 542.851C860.798 576.216 860.774 623.925 859.257 648.869C856.508 694.129 856.468 694.26 841.928 709.833L827.356 725.442L786.172 728.629C763.52 730.383 623.972 731.292 476.07 730.653C218.185 729.534 206.612 729.173 193.948 721.783C186.686 717.544 177.104 707.888 172.654 700.328C164.979 687.271 164.57 680.163 164.57 559.575V432.574L231.267 430.59C284.683 429.003 298.711 427.419 301.718 422.653C307.256 413.886 306.421 406.325 299.024 398.161C293.181 391.712 285.438 390.902 229.503 390.902C160.712 390.902 156.966 389.418 177.481 370.3C196.947 352.163 202.08 351.215 280.81 351.215C368.141 351.215 360.708 354.636 388.584 301.605C414.18 252.904 405.253 255.964 521.771 255.964H621.855L634.031 268.863ZM77.6997 284.738C62.4606 304.772 42.7443 358.247 40.4362 385.787C38.4459 409.52 38.7637 410.611 49.0012 415.271C58.178 419.45 60.6173 419.065 66.8464 412.453C70.819 408.238 77.1554 393.184 80.9374 378.996C84.7154 364.808 93.9042 340.392 101.361 324.735C115.861 294.283 117.708 284.158 110.144 276.602C101.452 267.918 87.9054 271.315 77.6997 284.738ZM938.046 336.133C931.305 342.868 932.028 348.706 944.486 388.319C950.942 408.837 958.43 425.058 962.498 427.332C972.422 432.88 988.896 421.359 988.896 408.877C988.896 392.418 969.331 336.304 962.705 333.764C952.92 330.009 943.243 330.942 938.046 336.133ZM33.2933 507.803C21.4627 519.618 21.0019 527.273 31.4858 537.747C41.3816 547.633 52.0999 547.883 60.6649 538.426C70.0483 528.067 68.9638 511.625 58.4085 504.239C46.7368 496.071 44.7505 496.353 33.2933 507.803ZM961.227 513.672C954.481 526.261 956.511 537.168 966.852 543.938C979.048 551.923 990.263 548.602 996.377 535.199C1000.21 526.785 999.94 523.114 994.899 515.431C987.057 503.473 967.245 502.437 961.227 513.672ZM949.17 636.966C939.624 646.503 939.087 655.961 947.41 667.832C958.935 684.274 984.924 674.356 984.924 653.52C984.924 643.638 971.893 629.029 963.074 629.029C959.797 629.029 953.54 632.601 949.17 636.966ZM44.377 637.582C37.4726 644.479 38.2035 662.954 45.6721 670.419C62.1785 686.905 88.3702 665.915 77.8149 644.654C72.3724 633.684 52.4852 629.481 44.377 637.582ZM170.612 838.906C160.303 840.735 155.842 844.069 153.045 852.034C146.689 870.148 154.777 875.093 190.738 875.093C217.474 875.093 222.475 874.005 226.007 867.417C231.847 856.511 231.187 852.348 222.173 843.343C213.99 835.167 198.953 833.873 170.612 838.906ZM795.221 838.207C782.274 840.699 776.236 853.816 782.584 865.667C787.264 874.402 789.997 875.093 819.935 875.093C854.307 875.093 861.771 871.803 861.771 856.666C861.771 839.001 832.823 830.972 795.221 838.207ZM300.633 883.348C292.648 887.995 291.302 906.847 298.448 913.987C305.321 920.853 711.088 920.853 717.961 913.987C724.981 906.974 723.761 893.135 715.462 885.63C708.903 879.697 688.81 879.074 507.891 879.181C379.244 879.26 305.099 880.748 300.633 883.348ZM419.436 981.571C411.18 990.683 411.065 999.732 419.102 1007.76C424.421 1013.08 439.033 1014 517.624 1014C615.006 1014 619.439 1013.2 619.439 995.629C619.439 975.431 614.044 974.312 516.484 974.312C433.88 974.312 425.438 974.943 419.436 981.571Z" fill="black"/>
</svg>
